<?xml version="1.0" encoding="UTF-8" standalone="no"?> 
<!DOCTYPE svg PUBLIC "-//W3C//Dtd SVG 1.1//EN" "http://www.w3.org/Graphics/SVG/1.1/Dtd/svg11.dtd">
<svg width="89.0" height="46.0" version="1.1" xmlns="http://www.w3.org/2000/svg" xmlns:xlink="http://www.w3.org/1999/xlink">
<!-- Created by FidoCadJ ver. 0.24.7, export filter by Davide Bucci -->
<rect x="21.0" y="16.0" rx="0" ry="0" width="9.0" height="4.0" style="stroke:#000000;stroke-width:0.5;fill-rule: evenodd;" fill="none"/>
<line x1="18.0" y1="18.0" x2="21.0" y2="18.0" style="stroke:#000000;stroke-width:0.5;fill-rule: evenodd;" fill="none"/>
<line x1="30.0" y1="18.0" x2="33.0" y2="18.0" style="stroke:#000000;stroke-width:0.5;fill-rule: evenodd;" fill="none"/>
<g transform="translate(23.0,8.0) scale(1.0363636363636364,1) "><text x="0" y="5.0" font-family="Courier New" font-size="5.0" font-style="" font-weigth="" fill="#000000">R</text>
</g>
<line x1="37.0" y1="24.0" x2="29.0" y2="24.0" style="stroke:#000000;stroke-width:0.5;fill-rule: evenodd;" fill="none"/>
<line x1="29.0" y1="27.0" x2="37.0" y2="27.0" style="stroke:#000000;stroke-width:0.5;fill-rule: evenodd;" fill="none"/>
<line x1="33.0" y1="27.0" x2="33.0" y2="33.0" style="stroke:#000000;stroke-width:0.5;fill-rule: evenodd;" fill="none"/>
<line x1="33.0" y1="24.0" x2="33.0" y2="18.0" style="stroke:#000000;stroke-width:0.5;fill-rule: evenodd;" fill="none"/>
<g transform="translate(38.0,23.0) scale(1.0363636363636364,1) "><text x="0" y="5.0" font-family="Courier New" font-size="5.0" font-style="" font-weigth="" fill="#000000">C</text>
</g>
<g transform="translate(48.0,23.0) scale(1.2954545454545454,1) "><text x="0" y="4.0" font-family="Courier New" font-size="4.0" font-style="" font-weigth="" fill="#000000">Vout</text>
</g>
<line x1="33.0" y1="18.0" x2="48.0" y2="18.0" style="stroke:#000000;stroke-width:0.5;fill-rule: evenodd;" fill="none"/>
<line x1="18.0" y1="33.0" x2="48.0" y2="33.0" style="stroke:#000000;stroke-width:0.5;fill-rule: evenodd;" fill="none"/>
<circle cx="13.0" cy="18.0" r="1.0" style="stroke:#000000;stroke-width:0.33" fill="#000000"/>
<circle cx="13.0" cy="33.0" r="1.0" style="stroke:#000000;stroke-width:0.33" fill="#000000"/>
<circle cx="48.0" cy="33.0" r="1.0" style="stroke:#000000;stroke-width:0.33" fill="#000000"/>
<circle cx="48.0" cy="18.0" r="1.0" style="stroke:#000000;stroke-width:0.33" fill="#000000"/>
<g transform="translate(3.0,23.0) scale(1.2954545454545454,1) "><text x="0" y="4.0" font-family="Courier New" font-size="4.0" font-style="" font-weigth="" fill="#000000">Vin</text>
</g>
<line x1="18.0" y1="18.0" x2="13.0" y2="18.0" style="stroke:#000000;stroke-width:0.5;fill-rule: evenodd;" fill="none"/>
<line x1="13.0" y1="33.0" x2="18.0" y2="33.0" style="stroke:#000000;stroke-width:0.5;fill-rule: evenodd;" fill="none"/>
<g transform="translate(18.0,3.0) scale(1.2954545454545454,1) "><text x="0" y="4.0" font-family="Courier New" font-size="4.0" font-style="" font-weigth="" fill="#000000">RC circuit</text>
</g>
<g transform="translate(3.0,38.0) scale(1.2954545454545454,1) "><text x="0" y="4.0" font-family="Courier New" font-size="4.0" font-style="" font-weigth="" fill="#000000">Produced using fidocadj</text>
</g>
</svg>