<?xml version="1.0" encoding="UTF-8" standalone="no"?> 
<!DOCTYPE svg PUBLIC "-//W3C//Dtd SVG 1.1//EN" "http://www.w3.org/Graphics/SVG/1.1/Dtd/svg11.dtd">
<svg width="321.0" height="186.0" version="1.1" xmlns="http://www.w3.org/2000/svg" xmlns:xlink="http://www.w3.org/1999/xlink">
<!-- Created by FidoCadJ ver. 0.24.7, export filter by Davide Bucci -->
<g transform="translate(23.0,68.0) scale(1.0363636363636364,1) "><text x="0" y="5.0" font-family="Courier New" font-size="5.0" font-style="" font-weigth="" fill="#000000">D13</text>
</g>
<line x1="23.0" y1="73.0" x2="23.0" y2="78.0" style="stroke:#000000;stroke-width:0.5;fill-rule: evenodd;" fill="none"/>
<g transform="translate(103.0,68.0) scale(1.0363636363636364,1) "><text x="0" y="5.0" font-family="Courier New" font-size="5.0" font-style="" font-weigth="" fill="#000000">GND</text>
</g>
<line x1="103.0" y1="78.0" x2="103.0" y2="73.0" style="stroke:#000000;stroke-width:0.5;fill-rule: evenodd;" fill="none"/>
<g transform="translate(93.0,68.0) scale(1.0363636363636364,1) "><text x="0" y="5.0" font-family="Courier New" font-size="5.0" font-style="" font-weigth="" fill="#000000">5V</text>
</g>
<line x1="93.0" y1="73.0" x2="93.0" y2="78.0" style="stroke:#000000;stroke-width:0.5;fill-rule: evenodd;" fill="none"/>
<g transform="translate(73.0,63.0) scale(1.0363636363636364,1) "><text x="0" y="5.0" font-family="Courier New" font-size="5.0" font-style="" font-weigth="" fill="#000000">SCL</text>
</g>
<g transform="translate(73.0,68.0) scale(1.0363636363636364,1) "><text x="0" y="5.0" font-family="Courier New" font-size="5.0" font-style="" font-weigth="" fill="#000000">A5</text>
</g>
<line x1="73.0" y1="78.0" x2="73.0" y2="73.0" style="stroke:#000000;stroke-width:0.5;fill-rule: evenodd;" fill="none"/>
<g transform="translate(53.0,68.0) scale(1.0363636363636364,1) "><text x="0" y="5.0" font-family="Courier New" font-size="5.0" font-style="" font-weigth="" fill="#000000">A2</text>
</g>
<line x1="53.0" y1="73.0" x2="53.0" y2="78.0" style="stroke:#000000;stroke-width:0.5;fill-rule: evenodd;" fill="none"/>
<g transform="translate(63.0,63.0) scale(1.0363636363636364,1) "><text x="0" y="5.0" font-family="Courier New" font-size="5.0" font-style="" font-weigth="" fill="#000000">SDA</text>
</g>
<g transform="translate(63.0,68.0) scale(1.0363636363636364,1) "><text x="0" y="5.0" font-family="Courier New" font-size="5.0" font-style="" font-weigth="" fill="#000000">A4</text>
</g>
<line x1="63.0" y1="78.0" x2="63.0" y2="73.0" style="stroke:#000000;stroke-width:0.5;fill-rule: evenodd;" fill="none"/>
<g transform="translate(28.0,53.0) scale(1.0363636363636364,1) "><text x="0" y="5.0" font-family="Courier New" font-size="5.0" font-style="" font-weigth="" fill="#000000">D11</text>
</g>
<line x1="28.0" y1="53.0" x2="28.0" y2="48.0" style="stroke:#000000;stroke-width:0.5;fill-rule: evenodd;" fill="none"/>
<g transform="translate(38.0,53.0) scale(1.0363636363636364,1) "><text x="0" y="5.0" font-family="Courier New" font-size="5.0" font-style="" font-weigth="" fill="#000000">D10</text>
</g>
<line x1="38.0" y1="48.0" x2="38.0" y2="53.0" style="stroke:#000000;stroke-width:0.5;fill-rule: evenodd;" fill="none"/>
<g transform="translate(48.0,53.0) scale(1.0363636363636364,1) "><text x="0" y="5.0" font-family="Courier New" font-size="5.0" font-style="" font-weigth="" fill="#000000">D8</text>
</g>
<line x1="48.0" y1="48.0" x2="48.0" y2="53.0" style="stroke:#000000;stroke-width:0.5;fill-rule: evenodd;" fill="none"/>
<g transform="translate(53.0,58.0) scale(1.0363636363636364,1) "><text x="0" y="5.0" font-family="Courier New" font-size="5.0" font-style="" font-weigth="" fill="#000000">NANO</text>
</g>
<rect x="18.0" y="53.0" rx="0" ry="0" width="95.0" height="20.0" style="stroke:#000000;stroke-width:0.5;fill-rule: evenodd;" fill="none"/>
<circle cx="263.0" cy="48.0" r="1.0" style="stroke:#000000;stroke-width:0.33" fill="#000000"/>
<line x1="73.0" y1="78.0" x2="73.0" y2="118.0" style="stroke:#000000;stroke-width:0.5;fill-rule: evenodd;" fill="none"/>
<g transform="translate(288.0,68.0) scale(1.0363636363636364,1) "><text x="0" y="5.0" font-family="Courier New" font-size="5.0" font-style="" font-weigth="" fill="#000000">24</text>
</g>
<line x1="288.0" y1="58.0" x2="288.0" y2="63.0" style="stroke:#000000;stroke-width:0.5;fill-rule: evenodd;" fill="none"/>
<g transform="translate(133.0,118.0) scale(1.0363636363636364,1) "><text x="0" y="5.0" font-family="Courier New" font-size="5.0" font-style="" font-weigth="" fill="#000000">SCL</text>
</g>
<line x1="73.0" y1="118.0" x2="128.0" y2="118.0" style="stroke:#000000;stroke-width:0.5;fill-rule: evenodd;" fill="none"/>
<line x1="128.0" y1="108.0" x2="123.0" y2="108.0" style="stroke:#000000;stroke-width:0.5;fill-rule: evenodd;" fill="none"/>
<line x1="278.0" y1="98.0" x2="228.0" y2="98.0" style="stroke:#000000;stroke-width:0.5;fill-rule: evenodd;" fill="none"/>
<line x1="228.0" y1="98.0" x2="228.0" y2="33.0" style="stroke:#000000;stroke-width:0.5;fill-rule: evenodd;" fill="none"/>
<circle cx="93.0" cy="88.0" r="1.0" style="stroke:#000000;stroke-width:0.33" fill="#000000"/>
<g transform="translate(268.0,73.0) scale(1.0363636363636364,1) "><text x="0" y="5.0" font-family="Courier New" font-size="5.0" font-style="" font-weigth="" fill="#000000">ZeroSeg</text>
</g>
<rect x="243.0" y="63.0" rx="0" ry="0" width="70.0" height="25.0" style="stroke:#000000;stroke-width:0.5;fill-rule: evenodd;" fill="none"/>
<g transform="translate(148.0,108.0) scale(1.0363636363636364,1) "><text x="0" y="5.0" font-family="Courier New" font-size="5.0" font-style="" font-weigth="" fill="#000000">DS3231</text>
</g>
<rect x="128.0" y="93.0" rx="0" ry="0" width="40.0" height="50.0" style="stroke:#000000;stroke-width:0.5;fill-rule: evenodd;" fill="none"/>
<g transform="translate(253.0,68.0) scale(1.0363636363636364,1) "><text x="0" y="5.0" font-family="Courier New" font-size="5.0" font-style="" font-weigth="" fill="#000000">2</text>
</g>
<line x1="253.0" y1="58.0" x2="253.0" y2="63.0" style="stroke:#000000;stroke-width:0.5;fill-rule: evenodd;" fill="none"/>
<g transform="translate(263.0,68.0) scale(1.0363636363636364,1) "><text x="0" y="5.0" font-family="Courier New" font-size="5.0" font-style="" font-weigth="" fill="#000000">6</text>
</g>
<line x1="263.0" y1="58.0" x2="263.0" y2="63.0" style="stroke:#000000;stroke-width:0.5;fill-rule: evenodd;" fill="none"/>
<g transform="translate(303.0,83.0) scale(1.0363636363636364,1) "><text x="0" y="5.0" font-family="Courier New" font-size="5.0" font-style="" font-weigth="" fill="#000000">37</text>
</g>
<line x1="303.0" y1="93.0" x2="303.0" y2="88.0" style="stroke:#000000;stroke-width:0.5;fill-rule: evenodd;" fill="none"/>
<g transform="translate(298.0,68.0) scale(1.0363636363636364,1) "><text x="0" y="5.0" font-family="Courier New" font-size="5.0" font-style="" font-weigth="" fill="#000000">34</text>
</g>
<line x1="298.0" y1="58.0" x2="298.0" y2="63.0" style="stroke:#000000;stroke-width:0.5;fill-rule: evenodd;" fill="none"/>
<g transform="translate(268.0,83.0) scale(1.0363636363636364,1) "><text x="0" y="5.0" font-family="Courier New" font-size="5.0" font-style="" font-weigth="" fill="#000000">11</text>
</g>
<line x1="268.0" y1="88.0" x2="268.0" y2="93.0" style="stroke:#000000;stroke-width:0.5;fill-rule: evenodd;" fill="none"/>
<g transform="translate(278.0,83.0) scale(1.0363636363636364,1) "><text x="0" y="5.0" font-family="Courier New" font-size="5.0" font-style="" font-weigth="" fill="#000000">19</text>
</g>
<line x1="278.0" y1="93.0" x2="278.0" y2="88.0" style="stroke:#000000;stroke-width:0.5;fill-rule: evenodd;" fill="none"/>
<g transform="translate(288.0,83.0) scale(1.0363636363636364,1) "><text x="0" y="5.0" font-family="Courier New" font-size="5.0" font-style="" font-weigth="" fill="#000000">23</text>
</g>
<line x1="288.0" y1="88.0" x2="288.0" y2="93.0" style="stroke:#000000;stroke-width:0.5;fill-rule: evenodd;" fill="none"/>
<circle cx="103.0" cy="78.0" r="1.0" style="stroke:#000000;stroke-width:0.33" fill="#000000"/>
<line x1="53.0" y1="158.0" x2="53.0" y2="78.0" style="stroke:#000000;stroke-width:0.5;fill-rule: evenodd;" fill="none"/>
<line x1="303.0" y1="93.0" x2="303.0" y2="158.0" style="stroke:#000000;stroke-width:0.5;fill-rule: evenodd;" fill="none"/>
<line x1="303.0" y1="158.0" x2="53.0" y2="158.0" style="stroke:#000000;stroke-width:0.5;fill-rule: evenodd;" fill="none"/>
<line x1="278.0" y1="93.0" x2="278.0" y2="98.0" style="stroke:#000000;stroke-width:0.5;fill-rule: evenodd;" fill="none"/>
<line x1="78.0" y1="48.0" x2="83.0" y2="48.0" style="stroke:#000000;stroke-width:0.5;fill-rule: evenodd;" fill="none"/>
<line x1="88.0" y1="48.0" x2="93.0" y2="48.0" style="stroke:#000000;stroke-width:0.5;fill-rule: evenodd;" fill="none"/>
<line x1="83.0" y1="48.0" x2="88.0" y2="45.0" style="stroke:#000000;stroke-width:0.5;fill-rule: evenodd;" fill="none"/>
<g transform="translate(58.0,18.0) scale(1.2954545454545454,1) "><text x="0" y="4.0" font-family="Courier New" font-size="4.0" font-style="" font-weigth="" fill="#000000">+</text>
</g>
<line x1="228.0" y1="33.0" x2="28.0" y2="33.0" style="stroke:#000000;stroke-width:0.5;fill-rule: evenodd;" fill="none"/>
<line x1="28.0" y1="33.0" x2="28.0" y2="48.0" style="stroke:#000000;stroke-width:0.5;fill-rule: evenodd;" fill="none"/>
<line x1="58.0" y1="23.0" x2="63.0" y2="23.0" style="stroke:#000000;stroke-width:0.5;fill-rule: evenodd;" fill="none"/>
<g transform="translate(43.0,68.0) scale(1.0363636363636364,1) "><text x="0" y="5.0" font-family="Courier New" font-size="5.0" font-style="" font-weigth="" fill="#000000">A0</text>
</g>
<line x1="43.0" y1="73.0" x2="43.0" y2="78.0" style="stroke:#000000;stroke-width:0.5;fill-rule: evenodd;" fill="none"/>
<line x1="48.0" y1="28.0" x2="48.0" y2="25.0" style="stroke:#000000;stroke-width:0.5;fill-rule: evenodd;" fill="none"/>
<polygon points="48.0,25.0 49.0,27.0 47.0,27.0" style="stroke:#000000;stroke-width:0.5;fill-rule: evenodd;" fill="#000000"/>
<rect x="43.0" y="21.0" rx="0" ry="0" width="10.0" height="4.0" style="stroke:#000000;stroke-width:0.5;fill-rule: evenodd;" fill="none"/>
<line x1="38.0" y1="23.0" x2="43.0" y2="23.0" style="stroke:#000000;stroke-width:0.5;fill-rule: evenodd;" fill="none"/>
<line x1="53.0" y1="23.0" x2="58.0" y2="23.0" style="stroke:#000000;stroke-width:0.5;fill-rule: evenodd;" fill="none"/>
<path d="M 60.0,14.0 C 62.0,20.0 69.0,20.0 71.0,14.0" style="stroke:#000000;stroke-width:0.5;fill-rule: evenodd;" fill="none"/>
<line x1="60.0" y1="14.0" x2="60.0" y2="13.0" style="stroke:#000000;stroke-width:0.5;fill-rule: evenodd;" fill="none"/>
<line x1="60.0" y1="13.0" x2="71.0" y2="13.0" style="stroke:#000000;stroke-width:0.5;fill-rule: evenodd;" fill="none"/>
<line x1="71.0" y1="13.0" x2="71.0" y2="14.0" style="stroke:#000000;stroke-width:0.5;fill-rule: evenodd;" fill="none"/>
<line x1="63.0" y1="18.0" x2="63.0" y2="23.0" style="stroke:#000000;stroke-width:0.5;fill-rule: evenodd;" fill="none"/>
<line x1="68.0" y1="18.0" x2="68.0" y2="23.0" style="stroke:#000000;stroke-width:0.5;fill-rule: evenodd;" fill="none"/>
<g transform="translate(78.0,53.0) scale(1.0363636363636364,1) "><text x="0" y="5.0" font-family="Courier New" font-size="5.0" font-style="" font-weigth="" fill="#000000">D3</text>
</g>
<line x1="78.0" y1="53.0" x2="78.0" y2="48.0" style="stroke:#000000;stroke-width:0.5;fill-rule: evenodd;" fill="none"/>
<line x1="48.0" y1="28.0" x2="48.0" y2="48.0" style="stroke:#000000;stroke-width:0.5;fill-rule: evenodd;" fill="none"/>
<circle cx="93.0" cy="48.0" r="1.0" style="stroke:#000000;stroke-width:0.33" fill="#000000"/>
<rect x="3.0" y="3.0" rx="0" ry="0" width="315.0" height="180.0" style="stroke:#000000;stroke-width:0.5;fill-rule: evenodd;" fill="none"/>
<g transform="translate(243.0,168.0) scale(1.2954545454545454,1) "><text x="0" y="4.0" font-family="Courier New" font-size="4.0" font-style="" font-weigth="" fill="#000000">Drawn with fidocadj</text>
</g>
<line x1="238.0" y1="88.0" x2="238.0" y2="58.0" style="stroke:#ff0000;stroke-width:0.5;fill-rule: evenodd;" fill="none"/>
<line x1="238.0" y1="58.0" x2="253.0" y2="58.0" style="stroke:#ff0000;stroke-width:0.5;fill-rule: evenodd;" fill="none"/>
<line x1="93.0" y1="88.0" x2="238.0" y2="88.0" style="stroke:#ff0000;stroke-width:0.5;fill-rule: evenodd;" fill="none"/>
<g transform="translate(133.0,138.0) scale(1.0363636363636364,1) "><text x="0" y="5.0" font-family="Courier New" font-size="5.0" font-style="" font-weigth="" fill="#ff0000">+</text>
</g>
<line x1="93.0" y1="138.0" x2="128.0" y2="138.0" style="stroke:#ff0000;stroke-width:0.5;fill-rule: evenodd;" fill="none"/>
<line x1="93.0" y1="78.0" x2="93.0" y2="138.0" style="stroke:#ff0000;stroke-width:0.5;fill-rule: evenodd;" fill="none"/>
<line x1="38.0" y1="38.0" x2="288.0" y2="38.0" style="stroke:#008080;stroke-width:0.5;fill-rule: evenodd;" fill="none"/>
<g transform="translate(133.0,128.0) scale(1.0363636363636364,1) "><text x="0" y="5.0" font-family="Courier New" font-size="5.0" font-style="" font-weigth="" fill="#008080">SDA</text>
</g>
<line x1="63.0" y1="128.0" x2="128.0" y2="128.0" style="stroke:#008080;stroke-width:0.5;fill-rule: evenodd;" fill="none"/>
<line x1="63.0" y1="78.0" x2="63.0" y2="128.0" style="stroke:#008080;stroke-width:0.5;fill-rule: evenodd;" fill="none"/>
<line x1="38.0" y1="48.0" x2="38.0" y2="38.0" style="stroke:#008080;stroke-width:0.5;fill-rule: evenodd;" fill="none"/>
<line x1="288.0" y1="93.0" x2="288.0" y2="153.0" style="stroke:#008080;stroke-width:0.5;fill-rule: evenodd;" fill="none"/>
<line x1="23.0" y1="153.0" x2="23.0" y2="78.0" style="stroke:#008080;stroke-width:0.5;fill-rule: evenodd;" fill="none"/>
<line x1="288.0" y1="153.0" x2="23.0" y2="153.0" style="stroke:#008080;stroke-width:0.5;fill-rule: evenodd;" fill="none"/>
<line x1="288.0" y1="38.0" x2="288.0" y2="58.0" style="stroke:#008080;stroke-width:0.5;fill-rule: evenodd;" fill="none"/>
<line x1="268.0" y1="148.0" x2="268.0" y2="93.0" style="stroke:#ffc800;stroke-width:0.5;fill-rule: evenodd;" fill="none"/>
<line x1="43.0" y1="148.0" x2="268.0" y2="148.0" style="stroke:#ffc800;stroke-width:0.5;fill-rule: evenodd;" fill="none"/>
<line x1="43.0" y1="78.0" x2="43.0" y2="148.0" style="stroke:#ffc800;stroke-width:0.5;fill-rule: evenodd;" fill="none"/>
<g transform="translate(133.0,98.0) scale(1.0363636363636364,1) "><text x="0" y="5.0" font-family="Courier New" font-size="5.0" font-style="" font-weigth="" fill="#b59b0c">GND</text>
</g>
<line x1="103.0" y1="98.0" x2="128.0" y2="98.0" style="stroke:#b59b0c;stroke-width:0.5;fill-rule: evenodd;" fill="none"/>
<line x1="93.0" y1="23.0" x2="93.0" y2="48.0" style="stroke:#b59b0c;stroke-width:0.5;fill-rule: evenodd;" fill="none"/>
<line x1="103.0" y1="78.0" x2="233.0" y2="78.0" style="stroke:#b59b0c;stroke-width:0.5;fill-rule: evenodd;" fill="none"/>
<line x1="298.0" y1="48.0" x2="298.0" y2="58.0" style="stroke:#b59b0c;stroke-width:0.5;fill-rule: evenodd;" fill="none"/>
<line x1="233.0" y1="48.0" x2="263.0" y2="48.0" style="stroke:#b59b0c;stroke-width:0.5;fill-rule: evenodd;" fill="none"/>
<line x1="263.0" y1="48.0" x2="298.0" y2="48.0" style="stroke:#b59b0c;stroke-width:0.5;fill-rule: evenodd;" fill="none"/>
<line x1="233.0" y1="78.0" x2="233.0" y2="48.0" style="stroke:#b59b0c;stroke-width:0.5;fill-rule: evenodd;" fill="none"/>
<line x1="263.0" y1="48.0" x2="263.0" y2="58.0" style="stroke:#b59b0c;stroke-width:0.5;fill-rule: evenodd;" fill="none"/>
<line x1="68.0" y1="23.0" x2="93.0" y2="23.0" style="stroke:#b59b0c;stroke-width:0.5;fill-rule: evenodd;" fill="none"/>
<line x1="103.0" y1="78.0" x2="103.0" y2="98.0" style="stroke:#b59b0c;stroke-width:0.5;fill-rule: evenodd;" fill="none"/>
<g transform="translate(93.0,53.0) scale(1.0363636363636364,1) "><text x="0" y="5.0" font-family="Courier New" font-size="5.0" font-style="" font-weigth="" fill="#b59b0c">GND</text>
</g>
<line x1="93.0" y1="53.0" x2="93.0" y2="48.0" style="stroke:#b59b0c;stroke-width:0.5;fill-rule: evenodd;" fill="none"/>
</svg>